<?xml version="1.0" encoding="utf-8"?>
<!-- Generator: Adobe Illustrator 19.2.1, SVG Export Plug-In . SVG Version: 6.00 Build 0)  -->
<svg version="1.1"
	 id="svg3336" inkscape:version="0.91 r13725" sodipodi:docname="Nintendo_Switch_Logo_Red.svg" xmlns:cc="http://creativecommons.org/ns#" xmlns:dc="http://purl.org/dc/elements/1.1/" xmlns:inkscape="http://www.inkscape.org/namespaces/inkscape" xmlns:rdf="http://www.w3.org/1999/02/22-rdf-syntax-ns#" xmlns:sodipodi="http://sodipodi.sourceforge.net/DTD/sodipodi-0.dtd" xmlns:svg="http://www.w3.org/2000/svg"
	 xmlns="http://www.w3.org/2000/svg" xmlns:xlink="http://www.w3.org/1999/xlink" x="0px" y="0px" viewBox="0 0 302.7 308.2"
	 style="enable-background:new 0 0 302.7 308.2;" xml:space="preserve">
<style type="text/css">
	.st0{fill:#E60012;}
</style>
<sodipodi:namedview  bordercolor="#666666" borderopacity="1" fit-margin-bottom="0" fit-margin-left="0" fit-margin-right="0" fit-margin-top="0" gridtolerance="10" guidetolerance="10" id="namedview3350" inkscape:current-layer="svg3336" inkscape:cx="151.35" inkscape:cy="154.10001" inkscape:pageopacity="0" inkscape:pageshadow="2" inkscape:window-height="706" inkscape:window-maximized="1" inkscape:window-width="1366" inkscape:window-x="-8" inkscape:window-y="-8" inkscape:zoom="1.7488644" objecttolerance="10" pagecolor="#ffffff" showgrid="false">
	</sodipodi:namedview>
<path id="path3348" inkscape:connector-curvature="0" class="st0" d="M234.9,243.3h-5.3v-14.1h5.3c3.8,0,7,3.1,7,7
	S238.7,243.3,234.9,243.3 M234.6,224.1h-10v24.3h10c6.9,0,12.5-5.5,12.5-12.2S241.5,224.1,234.6,224.1 M126.2,178.8H97.9
	c-9.1,0-17.7-3.6-24.1-10.1c-6.5-6.4-10.1-15-10.1-24.1V49.8c0-9.1,3.6-17.7,10.1-24.1c6.4-6.5,15-10,24.1-10h28.3L126.2,178.8z
	 M140.4,0H97.9C70.4,0,48.1,22.3,48.1,49.8v94.8c0,27.5,22.3,49.8,49.8,49.8h42.5c0.8,0,1.5-0.6,1.5-1.4V1.4
	C141.9,0.6,141.2,0,140.4,0 M204,248.4v-24.3h-4.9V240l-11.9-15.9h-4.9v24.3h4.9v-16.3l12,16.3H204z M145.3,270.5H160v36.1h9.8
	v-36.1h14.4v-9.7h-38.9L145.3,270.5z M216,269.5c5.2,0,10,2.7,12.6,7.1l7.4-6.5c-4.5-6.8-12.1-10.8-20.3-10.8
	c-13.4,0-24.4,10.9-24.4,24.4s11,24.5,24.4,24.5c8.2,0,15.8-4,20.3-10.8l-7.4-6.5c-2.6,4.3-7.4,7.1-12.6,7.1
	c-8,0-14.5-6.4-14.5-14.3C201.5,275.9,208,269.5,216,269.5 M301.1,300.7l-1.5,4.3l-1.5-4.3h-1.6v5.8h1.1V302l1.5,4.5h1l1.6-4.5v4.5
	h1v-5.8H301.1z M290.7,301.9h1.9v4.7h1.2v-4.7h1.8v-1.2h-4.9V301.9z M277.4,278.8H256v-18h-9.5v45.8h9.5v-18.3h21.4v18.3h9.5v-45.8
	h-9.5V278.8z M275.7,243.8c-4.1,0-7.5-3.4-7.5-7.6c0-4.2,3.4-7.5,7.5-7.5c4.2,0,7.6,3.3,7.6,7.5S279.9,243.8,275.7,243.8
	 M275.7,223.3c-7.1,0-12.9,5.8-12.9,12.9c0,7.2,5.8,13,12.9,13c7.2,0,13-5.8,13-13C288.7,229.1,282.9,223.3,275.7,223.3
	 M162.1,243.9h-13.9v-5.7h12.9v-4.4h-12.9v-5.3h13.9v-4.4h-18.9v24.3l18.9-0.1V243.9z M78.3,58.3c0,10.1,8.2,18.3,18.3,18.3
	s18.3-8.2,18.3-18.3c0-10.1-8.2-18.3-18.3-18.3S78.3,48.2,78.3,58.3 M21.3,278.8H21c-5.6-1-10.4-1.9-10.8-5.1
	c-0.1-0.6-0.1-1.6,0.8-2.6c1.5-1.8,5-2.7,10.3-2.7c5.9,0,11.9,2.3,14,3.2l3.3-7.9c-2.3-1-9.7-3.6-17.8-3.6
	c-9.9,0-20.4,4.9-20.4,13.8c0,7.3,5.1,11,18.3,13.2c9.2,1.6,14.3,2.5,14.2,6.5c-0.1,2.2-1.8,5.9-12.2,5.9c-8.4,0-14.4-3.1-16.4-4.3
	L0,303c2.3,1.2,10,4.9,20,4.9c14.6,0,22.3-5.1,22.3-14.7C42.3,286.4,38.8,281.9,21.3,278.8 M6.9,232.1L19,248.4h4.8v-24.3h-4.9V240
	l-12-15.9H2v24.3h4.9L6.9,232.1z M47.5,224.1h-5.4v24.3h5.4V224.1z M199.8,87.3c10.8,0,19.6,8.8,19.6,19.6
	c0,10.9-8.8,19.7-19.6,19.7c-10.9,0-19.7-8.8-19.7-19.7C180.1,96.1,188.9,87.3,199.8,87.3 M162.7,194.4h30
	c27.5,0,49.8-22.3,49.8-49.8V49.8c0-27.5-22.3-49.8-49.8-49.8h-30.1c-0.7,0-1.3,0.5-1.3,1.2V193
	C161.3,193.8,161.9,194.4,162.7,194.4 M93.8,294l-9.7-33.2h-8.2l-9.6,33.1l-8.8-33.1h-10l13,45.8h11l8.5-30.2l8.5,30.2h11.1l13-45.8
	h-10L93.8,294z M125.5,224.1h-20.6v5.1h7.8v19.2h5.2v-19.2h7.6V224.1z M70.7,232.1l12.1,16.3h4.8v-24.3h-4.9V240l-12-15.9h-4.9v24.3
	h4.9V232.1z M124,306.6h10.2v-45.8H124V306.6z"/>
</svg>
