<?xml version="1.0" encoding="UTF-8"?>
<svg xmlns="http://www.w3.org/2000/svg" viewBox="0 0 1000 1000">
  <path fill="#73c0e3" d="M35.193 500a464.81 464.81 0 0 0 464.81 464.81A464.81 464.81 0 0 0 964.813 500a464.81 464.81 0 0 0-464.81-464.81V500z" paint-order="markers stroke fill"/>
  <path fill="#518da3" d="M224.42 500 97.58 547.531l134.29 13.422-113.63 74.93 133.92-16.797-94.109 98.332 126.82-46.16-69.857 116.8 113.35-73.23-42.113 129.42 94.225-96.619-12.268 135.55 70.365-115.17 18.205 134.89 42.971-127.94 47.771 127.45 13.422-134.29 74.92 113.63-16.787-133.92 98.332 94.109-46.172-126.82 116.81 69.869-73.23-113.37 129.42 42.123-96.619-94.225 135.55 12.268-115.17-70.365 134.89-18.205-127.94-42.98 127.45-47.76-134.32-13.424 113.65-74.949-133.9 16.797 94.1-98.342-126.82 46.18 69.867-116.81-113.36 73.24 42.113-129.43-94.225 96.631 12.268-135.55-70.365 115.17-18.205-134.89-42.617 126.89-.35351 1.0488-.22656-.60351v92.418l.38281-.01368 13.492-.49023 40.512 7.6953 37.797 16.51 33.158 24.51 26.893 31.277 19.254 36.48 10.646 39.852 1.5117 41.215-7.6953 40.512-16.51 37.787-24.52 33.168-31.277 26.883-36.471 19.254-39.842 10.646-41.225 1.5117-40.502-7.6953-37.797-16.51-33.168-24.52-26.883-31.277-19.244-36.471-10.656-39.842-1.0078-27.336h-92.43z"/>
  <path fill="#3e6576" d="m36.219 500-.4199.0918 154.3 36.205-142.63 67.086 158.48.97266-124.13 97.135 154.73-34.322-99.408 122.32 143.21-67.885-69.69 141.37 124.51-98.055-36.49 153.34 99.574-123.3-1.4609 157.62 69.644-142.36 33.656 153.99 36.215-154.29 67.076 142.64.9746-158.49 97.135 124.13-34.314-154.72 122.32 99.408-67.894-143.21 141.38 69.699-98.055-124.51 153.34 36.488-123.3-99.582 157.62 1.459-142.36-69.643 153.99-33.648-154.29-36.213 142.64-67.078-158.52-.98242 124.15-97.156-154.72 34.324 99.398-122.33-143.21 67.895 69.689-141.37-124.51 98.055 36.48-153.34-99.564 123.3 1.4512-157.62-69.635 142.37-33.564-153.5v264.05l26.926.60156 43.613 10.979 40.092 20.412 34.527 28.818 27.266 35.787 18.615 40.953 9.0293 44.078-1.0019 44.977-10.99 43.623-20.412 40.082-28.818 34.537-35.787 27.256-40.951 18.604-44.07 9.0312-44.975-1.0039-43.613-10.988-40.094-20.412-34.525-28.809-27.266-35.797-18.605-40.953-9.0293-44.059.4023-18.049z"/>
  <path fill="#224b5b" d="m153.27 500-1.1074.24023 116.05 27.211-107.28 50.178 119.19.70703-93.416 72.799 116.36-25.838-74.873 91.766 107.69-51.076-52.574 106.12 93.623-73.768-27.646 115.17 74.861-92.754-1.3203 118.42 52.354-107.08 25.053 115.75 27.211-116.04 50.188 107.27.6972-119.19 72.809 93.416-25.838-116.36 91.756 74.873-51.076-107.69 106.12 52.584-73.756-93.633 115.16 27.646-92.744-74.861 118.42 1.3301-107.08-52.354 115.75-25.062-116.04-27.211 107.28-50.178-119.22-.70703 93.436-72.818-116.36 25.838 74.863-91.766-107.69 51.086 52.572-106.12-93.621 73.768 27.646-115.17-74.861 92.754 1.3203-118.43-52.344 107.09-22.195-102.5-2.623-12.123v125.58l1.7324-.0273 19.635-.31641 48.76 10.314 45.227 20.896 39.441 30.43 31.69 38.461 22.332 44.555 11.871 48.396.7871 49.818-10.312 48.75-20.896 45.227-30.451 39.443-38.449 31.678-44.545 22.332-48.396 11.859-49.818.79883-48.74-10.312-45.226-20.896-39.453-30.441-31.678-38.459-22.332-44.535-11.859-48.396-.457-28.438z"/>
  <path fill="#8c6138" d="M35.193 500h464.81V35.19A464.81 464.81 0 0 0 35.193 500z" paint-order="markers stroke fill"/>
  <path fill="#744c24" d="M224.42 500h92.43l-.01368-.38672-.49023-13.482 7.6953-40.531 16.51-37.787 24.52-33.168 31.268-26.883 36.48-19.244 39.842-10.656 27.34-1.0078v-92.418l-47.545-126.85-13.422 134.29-74.93-113.62 16.797 133.9-98.332-94.1 46.17 126.81-116.8-69.857 73.23 113.36-129.43-42.123 96.631 94.225-135.55-12.258 115.17 70.355-134.89 18.215 126.9 42.617 1.0391.35351-.61523.23047z"/>
  <path fill="#603813" d="M36.219 500h264.12l.01953-.85938h-.00391l.57227-26.068 10.988-43.613 20.412-40.092 28.818-34.537 35.787-27.256 40.953-18.613 44.068-9.0312 18.053.40234v-264.05l-.10547-.48242-36.205 154.29-67.086-142.62-.96289 158.48-97.146-124.13 34.324 154.73-122.32-99.408 67.895 143.21-141.38-69.699 98.055 124.51-153.34-36.48 123.3 99.574-157.61-1.4492 142.36 69.633-144.58 31.604h-.025391l-8.9551 1.957z"/>
  <path fill="#42210b" d="M153.27 500h125.6l-.02734-1.7363-.31641-19.645 10.314-48.75 20.896-45.236 30.441-39.432 38.459-31.689 44.535-22.332 48.396-11.859 28.441-.45703v-125.58l-.24414-1.1289-27.211 116.04-50.189-107.27-.70508 119.19-72.799-93.416 25.838 116.36-91.766-74.873 51.086 107.69-106.12-52.574 73.768 93.633-115.17-27.656 92.754 74.871-118.42-1.3301 107.08 52.354-102.53 22.195-12.113 2.627z"/>
  <path d="m499.97 224.08-11.206 44.492a232 232 0 0 0-30.981 3.7485l-19.21-41.316-1.0256 45.943a232 232 0 0 0-29.304 10.559l-27.987-36.089 9.2557 45.183a232 232 0 0 0-26.288 16.624l-35.28-28.928 19.08 41.996a232 232 0 0 0-22.113 21.96l-40.653-20.261 27.859 36.58a232 232 0 0 0-16.472 26.474l-44.254-10.736 35.238 29.414a232 232 0 0 0-10.031 29.528l-45.609-.61995 41.02 20.894a232 232 0 0 0-3.402 30.976l-44.53 9.5278 44.425 11.191a232 232 0 0 0 3.6931 31.056l-41.194 19.151 45.769 1.0239a232 232 0 0 0 10.572 29.431l-35.929 27.861 44.949-9.2073a232 232 0 0 0 16.69 26.444l-28.762 35.076 41.733-18.96a232 232 0 0 0 22.083 22.275l-20.124 40.37 36.32-27.657a232 232 0 0 0 26.652 16.617l-10.653 43.909 29.171-34.947a232 232 0 0 0 29.765 10.113l-.6163 45.236 20.723-40.677a232 232 0 0 0 31.226 3.428l9.4495 44.161 11.101-44.065a232 232 0 0 0 31.292-3.7358l19.003 40.878 1.0167-45.426a232 232 0 0 0 29.633-10.664l27.669 35.68-9.1477-44.656a232 232 0 0 0 26.594-16.81l34.867 28.59-18.859-41.509a232 232 0 0 0 22.367-22.211l40.176 20.029-27.546-36.176a232 232 0 0 0 16.616-26.768l43.8 10.626-34.888-29.121a232 232 0 0 0 10.094-29.814l45.197.61592-40.677-20.723a232 232 0 0 0 3.3927-31.22l44.199-9.455-44.131-11.118a232 232 0 0 0-3.7912-31.219l41.001-19.061-45.601-1.0203a232 232 0 0 0-10.65-29.506l35.841-27.792-44.89 9.1922a232 232 0 0 0-16.753-26.451l28.754-35.071-41.772 18.98a232 232 0 0 0-22.088-22.204l20.166-40.458-36.436 27.748a232 232 0 0 0-26.594-16.467l10.709-44.149-29.363 35.18a232 232 0 0 0-29.577-10.008l.6197-45.572-20.894 41.02a232 232 0 0 0-30.968-3.3649z" paint-order="markers stroke fill"/>
</svg>